<svg xmlns="http://www.w3.org/2000/svg" xmlns:xlink="http://www.w3.org/1999/xlink" width="50" height="50" viewBox="0 0 50 50"><defs><clipPath id="b"><rect width="50" height="50"/></clipPath></defs><g id="a" clip-path="url(#b)"><g transform="translate(-95.2 -0.6)"><path d="M22.5,0A22.5,22.5,0,1,1,0,22.5,22.5,22.5,0,0,1,22.5,0Z" transform="translate(97.7 3.1)" fill="#fff"/><path d="M22.5-1a23.506,23.506,0,0,1,9.148,45.153A23.506,23.506,0,0,1,13.352.847,23.354,23.354,0,0,1,22.5-1Zm0,45A21.5,21.5,0,1,0,1,22.5,21.524,21.524,0,0,0,22.5,44Z" transform="translate(97.7 3.1)" fill="#4f5b68"/><circle cx="15" cy="15" r="15" transform="translate(105.7 11.1)" fill="#0b8dbe"/><circle cx="7" cy="7" r="7" transform="translate(113.7 19.1)" fill="#1c1c1c"/><circle cx="3" cy="3" r="3" transform="translate(113.7 19.1)" fill="#fff"/></g></g></svg>