<svg version="1.1" id="Capa_1" xmlns="http://www.w3.org/2000/svg" xmlns:xlink="http://www.w3.org/1999/xlink" x="0px" y="0px"
	 viewBox="0 0 148.1 53" style="enable-background:new 0 0 148.1 53;" xml:space="preserve">
	<style type="text/css">
		.st0{fill:#FFFFFF;}
		.st1{fill:#0B8DBE;}
		.st2{fill:#1C1C1C;}
	</style>
	<path class="st0" d="M13.7,23.8c0-0.6,0.3-0.9,0.9-0.9h14.2c2.3,0,3-0.6,3-2.6v-2.2c0-1.9-0.6-2.5-3-2.5H15c-1.5,0-2.2,0.6-2.2,2
		v1.1c0,1-1.2,0.9-2.2,0.9H7.4c-0.6,0-0.9-0.3-0.9-0.9V17c0-5,1.8-6.7,7-6.7h17.8c5.1,0,7.2,2.1,7.2,6.9v1.8c0,3.7-1.3,5.8-4.2,6.6
		c3.2,0.7,4.7,2.7,4.7,6.6v2.1c0,4.8-2.2,6.9-7.2,6.9H12.6c-5.1,0-7-1.8-7-6.7v-1.8c0-0.6,0.3-0.9,0.9-0.9H11c0.6,0,0.9,0.3,0.9,0.9
		v1.1c0,1.4,0.7,2,2.2,2h15.2c2.3,0,2.9-0.6,2.9-2.5v-2.5c0-1.9-0.6-2.5-2.9-2.5H14.6c-0.6,0-0.9-0.4-0.9-0.9V23.8z"/>
	<path class="st0" d="M66,10.3c6,0,9.7,3.5,9.7,9.3v12.2c0,5.8-3.7,9.3-9.7,9.3H45.2c-0.7,0-1-0.4-1-0.9v-29c0-0.6,0.3-0.9,1-0.9H66z
		M51.3,35.3h11.8c4,0,5.5-1.2,5.5-4.6V20.6c0-3.3-1.5-4.6-5.5-4.6H51.3V35.3z"/>
	<path class="st0" d="M80.6,30.7c-0.6,0-0.9-0.3-0.9-0.8v-4c0-0.5,0.3-0.8,0.9-0.8H91c0.6,0,0.9,0.3,0.9,0.8v4c0,0.5-0.3,0.8-0.9,0.8
		H80.6z"/>
	<g>
		<circle class="st0" cx="120.2" cy="25.6" r="22.5"/>
		<circle class="st1" cx="120.7" cy="26.1" r="15"/>
		<circle class="st2" cx="120.7" cy="26.1" r="7"/>
		<circle class="st0" cx="116.7" cy="22.1" r="3"/>
	</g>
</svg>
