<svg xmlns="http://www.w3.org/2000/svg" xmlns:xlink="http://www.w3.org/1999/xlink" width="65" height="65" viewBox="0 0 65 65"><defs><clipPath id="b"><rect width="65" height="65"/></clipPath></defs><g id="a" clip-path="url(#b)"><path d="M48.261,51.681l-8.11-8.11A26.177,26.177,0,0,1,29,45.922a26.064,26.064,0,0,1-11.47-2.5,24.347,24.347,0,0,1-7.349-5.515,25.376,25.376,0,0,1-5.106-8.142L4.833,29l.254-.764A26.066,26.066,0,0,1,13.584,17L7.25,10.667l3.415-3.412L51.673,48.263l-3.407,3.417ZM17,20.423A20.721,20.721,0,0,0,9.949,29,20.078,20.078,0,0,0,29,41.088a22.5,22.5,0,0,0,7.46-1.208l-4.35-4.35a7.1,7.1,0,0,1-3.11.725A7.3,7.3,0,0,1,21.75,29a7.1,7.1,0,0,1,.725-3.118ZM47.975,37.729l-3.364-3.362A20.77,20.77,0,0,0,48.05,29,20.059,20.059,0,0,0,29,16.921c-.6,0-1.2.022-1.776.063l-4.265-4.27A28.306,28.306,0,0,1,29,12.088a26.066,26.066,0,0,1,11.469,2.5A24.345,24.345,0,0,1,47.818,20.1a25.376,25.376,0,0,1,5.106,8.132l.242.768-.254.764a25.2,25.2,0,0,1-4.935,7.975Z" transform="translate(3.5 3.032)" fill="#fff"/></g></svg>