<svg xmlns="http://www.w3.org/2000/svg" xmlns:xlink="http://www.w3.org/1999/xlink" width="65" height="65" viewBox="0 0 65 65"><defs><clipPath id="b"><rect width="65" height="65"/></clipPath></defs><g id="a" clip-path="url(#b)"><path d="M29,45.916a26.061,26.061,0,0,1-11.47-2.5A24.35,24.35,0,0,1,10.181,37.9a25.59,25.59,0,0,1-5.106-8.137L4.833,29l.254-.764a25.763,25.763,0,0,1,5.1-8.137,24.343,24.343,0,0,1,7.347-5.515A26.063,26.063,0,0,1,29,12.083a26.066,26.066,0,0,1,11.469,2.5A24.344,24.344,0,0,1,47.818,20.1a25.375,25.375,0,0,1,5.106,8.137l.242.764-.254.764A25.189,25.189,0,0,1,29,45.916Zm0-29A20.078,20.078,0,0,0,9.949,29,20.075,20.075,0,0,0,29,41.083,20.08,20.08,0,0,0,48.05,29,20.058,20.058,0,0,0,29,16.916ZM29,36.25a7.3,7.3,0,1,1,5.111-2.136A7.192,7.192,0,0,1,29,36.25Z" transform="translate(3.5 3.5)" fill="#fff"/></g></svg>